# xmcd
#
# Track frame offsets: 
#        150
#        41674
#        68349
#        97016
#        126931
#        154616
#        188707
#        213908
#        238986
#        272580
#
# Disc length: 3985 seconds
#
# Revision: 0
# Processed by: cddbd v1.5.2PL0 Copyright (c) Steve Scherf et al.
# Submitted via: ExactAudioCopy v1.2
#
DISCID=870f8f0a
DTITLE=R.L. Boyce - Roll and Tumble
DYEAR=2017
DGENRE=Blues
TTITLE0=R.L.'s Boogie
TTITLE1=Child of God
TTITLE2=Roll and Tumble
TTITLE3=Poor Black Mattie
TTITLE4=Going Away
TTITLE5=Don't Worry My Mind
TTITLE6=Been Around the World
TTITLE7=Which RL Do You Want
TTITLE8=Going Down South
TTITLE9=Shotgun
EXTD=
EXTT0=
EXTT1=
EXTT2=
EXTT3=
EXTT4=
EXTT5=
EXTT6=
EXTT7=
EXTT8=
EXTT9=
PLAYORDER=
